<?xml version="1.0" standalone="no"?>
<!DOCTYPE svg PUBLIC "-//W3C//DTD SVG 20010904//EN"
 "http://www.w3.org/TR/2001/REC-SVG-20010904/DTD/svg10.dtd">
<svg version="1.0" xmlns="http://www.w3.org/2000/svg"
 width="400.000000pt" height="400.000000pt" viewBox="0 0 400.000000 400.000000"
 preserveAspectRatio="xMidYMid meet">
<metadata>
Created by potrace 1.14, written by Peter Selinger 2001-2017
</metadata>
<g transform="translate(0.000000,400.000000) scale(0.100000,-0.100000)"
fill="#000000" stroke="none">
<path d="M1790 3989 c-359 -37 -733 -188 -1020 -412 -96 -75 -253 -230 -330
-327 -97 -122 -163 -227 -236 -375 -271 -551 -271 -1198 0 -1750 201 -408 513
-721 921 -921 549 -269 1191 -271 1743 -4 753 364 1204 1164 1122 1991 -61
613 -391 1154 -912 1493 -366 238 -841 350 -1288 305z m461 -929 c306 -60 563
-110 571 -110 8 0 22 -8 31 -17 8 -10 83 -205 166 -433 l151 -416 -2 -314 -3
-314 -410 -303 c-225 -167 -419 -308 -430 -313 -26 -13 -1158 209 -1180 231
-7 8 -82 201 -164 429 l-151 416 2 313 3 314 305 224 c168 124 359 265 425
314 66 49 122 89 125 89 2 0 255 -49 561 -110z"/>
<path d="M1760 2813 l0 -238 483 -94 c265 -52 490 -96 500 -99 16 -4 17 12 17
231 0 216 -1 236 -17 241 -10 3 -227 46 -483 96 -256 50 -473 93 -482 96 -17
5 -18 -11 -18 -233z"/>
<path d="M1295 2750 c-187 -138 -341 -256 -343 -263 -2 -10 112 -334 121 -343
2 -2 132 91 290 207 l287 211 0 219 c0 121 -4 219 -8 219 -4 0 -161 -113 -347
-250z"/>
<path d="M2870 2459 l-1 -124 53 -147 c28 -82 55 -148 60 -148 15 0 68 43 68
55 0 12 -168 477 -175 484 -3 2 -5 -52 -5 -120z"/>
<path d="M1430 2269 c-157 -116 -293 -216 -302 -223 -17 -12 -14 -23 36 -160
30 -81 56 -149 58 -151 2 -2 237 -49 523 -105 286 -55 525 -103 531 -104 7 -3
564 396 611 438 3 3 -103 296 -109 301 -1 2 -235 49 -518 104 -283 56 -522
104 -530 106 -8 2 -142 -90 -300 -206z"/>
<path d="M941 2110 l-1 -74 22 21 21 22 -21 53 -21 53 0 -75z"/>
<path d="M978 1937 c-16 -13 -28 -27 -28 -32 0 -6 39 -118 87 -250 l88 -240 3
125 3 125 -52 148 c-29 81 -57 147 -63 147 -6 -1 -23 -11 -38 -23z"/>
<path d="M3035 1940 c-17 -19 -17 -22 3 -72 l21 -53 0 73 c1 39 -1 72 -2 72
-2 0 -12 -9 -22 -20z"/>
<path d="M2637 1648 l-287 -210 0 -220 c0 -186 2 -219 14 -215 30 12 686 501
686 512 0 11 -117 335 -123 341 -2 2 -132 -92 -290 -208z"/>
<path d="M1240 1387 c0 -216 1 -236 18 -241 9 -3 226 -46 482 -96 256 -50 473
-93 483 -96 16 -5 17 11 17 233 l0 238 -483 94 c-265 52 -490 97 -499 99 -17
4 -18 -12 -18 -231z"/>
</g>
</svg>
